<?xml version="1.0" encoding="UTF-8"?>
<svg version="1.1" xmlns="http://www.w3.org/2000/svg" width="512" height="512">
<path d="M0 0 C3.17431641 1.32250977 3.17431641 1.32250977 6.6015625 3.19140625 C7.22760376 3.52813354 7.85364502 3.86486084 8.49865723 4.21179199 C10.5472839 5.31712624 12.58594798 6.43961656 14.625 7.5625 C16.05257352 8.33705374 17.48080529 9.11039539 18.90966797 9.88256836 C21.8401017 11.4680132 24.76698119 13.05975078 27.69140625 14.65625 C31.72942184 16.85757017 35.78291766 19.02861576 39.84375 21.1875 C72.62263001 38.62263001 72.62263001 38.62263001 75 41 C75.10283123 42.73932164 75.13521043 44.48283831 75.14044189 46.22518921 C75.14615204 47.35813919 75.15186218 48.49108917 75.15774536 49.65837097 C75.15886322 50.91241226 75.15998108 52.16645355 75.16113281 53.45849609 C75.16609772 54.77055527 75.17106262 56.08261444 75.17617798 57.43443298 C75.18932577 61.04396369 75.19575159 64.65347579 75.20018864 68.26302671 C75.20311564 70.51623125 75.20721973 72.76943064 75.21169281 75.0226326 C75.22537423 82.06685246 75.23503763 89.11106064 75.2388947 96.15529287 C75.2433767 104.29703889 75.26092837 112.43861714 75.2898953 120.58031213 C75.31148713 126.86653025 75.32159765 133.15270108 75.32293582 139.4389559 C75.32398569 143.19667794 75.32993167 146.95424239 75.34775543 150.71192551 C75.367244 154.90229274 75.36295716 159.0923074 75.35644531 163.28271484 C75.3656601 164.53270767 75.37487488 165.7827005 75.3843689 167.0705719 C75.37601517 168.77845634 75.37601517 168.77845634 75.36749268 170.52084351 C75.36895924 171.51231573 75.3704258 172.50378796 75.3719368 173.52530479 C74.93407394 176.43864149 74.31056292 177.24007284 72 179 C69.84273602 180.25997738 67.69591903 181.44262149 65.48046875 182.58984375 C64.83314285 182.93089142 64.18581696 183.27193909 63.51887512 183.62332153 C61.41091899 184.73288454 59.29919449 185.83507126 57.1875 186.9375 C54.28388326 188.46373176 51.38226834 189.99375435 48.48046875 191.5234375 C47.75858368 191.903293 47.03669861 192.2831485 46.29293823 192.67451477 C39.82971813 196.07881848 33.40694081 199.55327948 27 203.0625 C26.07598389 203.56837646 25.15196777 204.07425293 24.19995117 204.59545898 C22.13244509 205.7287601 20.06569438 206.86340104 18 208 C19.15757812 208.02578125 20.31515625 208.0515625 21.5078125 208.078125 C23.04691128 208.13443349 24.58597233 208.1917802 26.125 208.25 C26.88554687 208.26417969 27.64609375 208.27835938 28.4296875 208.29296875 C33.68880412 208.51965481 36.81854767 209.53499589 41 213 C42.68306823 216.36613647 42.26885525 220.11433508 42.3125 223.8125 C42.35600586 225.02389648 42.35600586 225.02389648 42.40039062 226.25976562 C42.44409359 230.36448237 42.34206816 232.45621743 40.10546875 236.01171875 C36.17189941 239.72635102 33.21310741 239.08408238 28 239 C28.01740234 239.97839844 28.01740234 239.97839844 28.03515625 240.9765625 C28.08498262 245.80260282 27.83383696 250.23521735 27 255 C27.33 255.66 27.66 256.32 28 257 C28.12207871 258.78859511 28.17548448 260.58228381 28.1875 262.375 C28.20167969 263.33148438 28.21585937 264.28796875 28.23046875 265.2734375 C27.99745572 268.03010017 27.40920164 269.64947395 26 272 C26.66 272.99 27.32 273.98 28 275 C28.53227132 280.7467259 28.01630801 286.33771249 27 292 C27.33 292.66 27.66 293.32 28 294 C28.12207871 295.78859511 28.17548448 297.58228381 28.1875 299.375 C28.20167969 300.33148438 28.21585937 301.28796875 28.23046875 302.2734375 C27.99745572 305.03010017 27.40920164 306.64947395 26 309 C26.66 309.99 27.32 310.98 28 312 C28.53227132 317.7467259 28.01630801 323.33771249 27 329 C27.33 329.66 27.66 330.32 28 331 C28.42095995 336.5312179 28.17530964 340.87248442 26 346 C26.66 346.99 27.32 347.98 28 349 C28.265625 351.55859375 28.265625 351.55859375 28.25 354.4375 C28.25515625 355.38496094 28.2603125 356.33242188 28.265625 357.30859375 C28 360 28 360 26.859375 362.09765625 C26.57578125 362.72542969 26.2921875 363.35320312 26 364 C26.85031673 365.99265291 26.85031673 365.99265291 28 368 C28.52187167 373.36024123 28.10811136 378.73647105 27 384 C29.99144132 381.40167746 31.54039384 378.40412949 33.37109375 374.91796875 C33.68931091 374.31621323 34.00752808 373.7144577 34.33538818 373.09446716 C35.0184832 371.80139492 35.69912036 370.50702183 36.37753296 369.21148682 C37.81150521 366.47334419 39.25738745 363.74155785 40.70283508 361.00946045 C41.43297961 359.62927456 42.16254189 358.24878049 42.89152527 356.86798096 C45.94188841 351.09372218 49.04853658 345.35159541 52.1875 339.625 C55.76561632 333.09468044 59.32179528 326.55357377 62.85083008 319.99658203 C65.55064278 314.9886393 68.26980815 309.99143889 71 305 C71.54785156 303.99791504 72.09570312 302.99583008 72.66015625 301.96337891 C74.26055681 299.051539 75.87720349 296.14940656 77.5 293.25 C78.22026367 291.93696899 78.22026367 291.93696899 78.95507812 290.59741211 C81.4379265 286.20484825 83.55548349 282.66100266 88 280 C92.56912541 278.84778577 96.16130766 279.57274164 100.3125 281.6875 C103.01482499 284.33637747 103.84796351 287.14107125 104.90234375 290.73046875 C105.24354248 291.88877197 105.58474121 293.0470752 105.9362793 294.24047852 C107.57357085 300.02717868 109.17504022 305.82131056 110.71972656 311.63330078 C111.25908795 313.65913421 111.80517867 315.6830819 112.3515625 317.70703125 C112.69831904 319.00510091 113.04468836 320.30327409 113.390625 321.6015625 C113.70032227 322.75994629 114.01001953 323.91833008 114.32910156 325.11181641 C115 328 115 328 115 331 C116.3961851 329.91712005 117.79193004 328.8336726 119.1875 327.75 C120.01636719 327.11320312 120.84523438 326.47640625 121.69921875 325.8203125 C124.09621048 323.98018565 124.09621048 323.98018565 126.5 321.625 C130.0727399 319.30271906 133.75399332 318.44223229 138 319 C143.61471431 322.03817991 146.45265537 325.9739627 149.91015625 331.25 C150.46605942 332.07841904 151.02196259 332.90683807 151.5947113 333.76036072 C153.4285471 336.49958817 155.24557832 339.2495302 157.0625 342 C158.35589761 343.94011694 159.65018408 345.87964156 160.9453125 347.81860352 C164.98000164 353.86822024 168.99106037 359.93330224 173 366 C174.24186988 367.87624183 175.48389057 369.75238386 176.72607422 371.62841797 C183.32872169 381.60425843 189.90923429 391.5945202 196.47674561 401.59352112 C202.90631961 411.38238698 209.34966804 421.16215758 215.79492188 430.94070435 C217.62554665 433.71849207 219.45543172 436.49676572 221.28515625 439.27514648 C221.85601959 440.14134109 222.42688293 441.00753571 223.01504517 441.89997864 C224.12364849 443.58315254 225.23092337 445.26720228 226.33676147 446.95219421 C228.84408906 450.76612046 231.37314277 454.55871713 233.97900391 458.30615234 C234.44152054 458.9778093 234.90403717 459.64946625 235.38056946 460.34147644 C236.22599792 461.56535451 237.08055676 462.78301067 237.94694519 463.99214172 C240.89259326 468.27523098 242.12333814 471.94034397 243 477 C241.90845711 480.69911759 240.86781114 483.10226433 238.1875 485.875 C234.01204643 488.02237612 231.1235198 488.28598686 226.5625 487.125 C217.54650252 482.66755712 211.79399018 469.79928262 206.4486084 461.60073853 C204.82780108 459.11511716 203.20210892 456.63275145 201.57519531 454.15112305 C199.24422077 450.59492313 196.91488943 447.03765615 194.58691406 443.47949219 C188.65483909 434.41490711 182.70559931 425.36164205 176.75 416.3125 C176.15641693 415.40988434 175.56283386 414.50726868 174.95126343 413.57730103 C167.93662865 402.91526976 160.86902411 392.29163875 153.71484375 381.72265625 C152.70041702 380.22346397 152.70041702 380.22346397 151.66549683 378.69398499 C148.39696009 373.86665888 145.12164549 369.04410386 141.83691406 364.2277832 C140.66594179 362.50346811 139.49503943 360.77910553 138.32421875 359.0546875 C137.7820018 358.26421524 137.23978485 357.47374298 136.68113708 356.65931702 C136.19299026 355.93884689 135.70484344 355.21837677 135.2019043 354.47607422 C134.77419235 353.84933807 134.34648041 353.22260193 133.9058075 352.57687378 C133 351 133 351 133 349 C128.05 352.96 128.05 352.96 123 357 C130.3095681 385.87148462 137.94290847 414.65098164 145.68096924 443.41027832 C147.46702258 450.05019718 149.25012297 456.69090959 151.03349972 463.33154774 C152.41453494 468.47391533 153.79603808 473.61615539 155.17909241 478.75798035 C155.42960358 479.68977615 155.68011475 480.62157196 155.93821716 481.581604 C156.40408852 483.31441133 156.87022177 485.04714827 157.33666992 486.77980042 C157.54236099 487.54511078 157.74805206 488.31042114 157.9599762 489.09892273 C158.22671064 490.09037812 158.22671064 490.09037812 158.49883366 491.10186291 C158.66421855 491.72824815 158.82960344 492.35463339 159 493 C159.17871612 493.66053784 159.35743223 494.32107569 159.54156399 495.00162983 C160.47758898 499.08185997 161.09131011 503.10649552 158.953125 506.81640625 C156.514518 509.79294126 154.66505033 511.79371058 150.79296875 512.2734375 C146.57819865 512.43773139 143.81879377 512.48059634 140.125 510.3125 C133.51745861 500.01250901 131.62152215 485.32056613 128.51385498 473.57728577 C127.60752568 470.15272333 126.69795728 466.7290351 125.78759766 463.30554199 C123.52856421 454.80761037 121.27498698 446.30823384 119.02124023 437.80889893 C117.11141694 430.60742282 115.1994943 423.40651028 113.28485107 416.20631409 C112.3943767 412.85419211 111.5069354 409.50127709 110.61962891 406.14831543 C107.9355744 396.03518323 105.22772476 385.95618699 102 376 C95.17017741 381.78918394 88.37045981 387.59026382 81.8125 393.6875 C77.32274651 397.85882602 72.66359304 401.75295019 67.8828125 405.5859375 C63.85172386 408.96156457 60.03343905 412.55330192 56.23852539 416.19116211 C52.21150834 420 52.21150834 420 50 420 C50.04125 420.94875 50.0825 421.8975 50.125 422.875 C50 426 50 426 48 428 C45.1796875 428.1953125 45.1796875 428.1953125 41.875 428.125 C40.77929688 428.10695313 39.68359375 428.08890625 38.5546875 428.0703125 C37.29011719 428.03550781 37.29011719 428.03550781 36 428 C36.74056641 429.62808594 36.74056641 429.62808594 37.49609375 431.2890625 C38.14359535 432.73421099 38.79071036 434.17953273 39.4375 435.625 C39.76298828 436.33785156 40.08847656 437.05070312 40.42382812 437.78515625 C42.71470194 442.93371802 44.56408773 447.43596488 43.3125 453.125 C41.62452154 456.82247663 39.65218586 459.17390707 36 461 C31.93728036 461.46877534 29.6841577 461.40546131 26.1328125 459.30078125 C21.30935233 455.04549809 19.44894171 448.63814191 17.125 442.8125 C16.62742187 441.61173828 16.12984375 440.41097656 15.6171875 439.17382812 C12 430.35444926 12 430.35444926 12 428 C2.1 428 -7.8 428 -18 428 C-19.485 432.455 -19.485 432.455 -21 437 C-22.1967992 440.28172898 -23.49438035 443.5153189 -24.8125 446.75 C-25.13025391 447.57371094 -25.44800781 448.39742188 -25.77539062 449.24609375 C-27.99271837 454.6565477 -30.08967386 457.75023329 -35 461 C-39.34033388 461.69755366 -41.39324407 461.30910208 -45.3125 459.3125 C-48.21970726 456.81094957 -49.23769819 455.72680887 -50 452 C-49.58931232 445.82643685 -48.04446998 441.07530214 -45.4375 435.5 C-45.10814453 434.77296875 -44.77878906 434.0459375 -44.43945312 433.296875 C-43.63594979 431.52683866 -42.8193415 429.76276083 -42 428 C-42.83144531 428.04640625 -43.66289062 428.0928125 -44.51953125 428.140625 C-45.60621094 428.17671875 -46.69289062 428.2128125 -47.8125 428.25 C-48.89144531 428.29640625 -49.97039062 428.3428125 -51.08203125 428.390625 C-54 428 -54 428 -55.76171875 426.296875 C-57 424 -57 424 -57.81640625 421.609375 C-59.44122019 418.02727694 -62.04381466 415.80775176 -64.9375 413.25 C-65.52015625 412.72341797 -66.1028125 412.19683594 -66.703125 411.65429688 C-71.07776046 407.73237423 -75.60520749 404.0202405 -80.1875 400.34375 C-83.39853263 397.66788948 -86.44989104 394.85603149 -89.5 392 C-98.41958615 382.31658995 -98.41958615 382.31658995 -109 377 C-109.21947296 377.83666199 -109.43894592 378.67332397 -109.66506958 379.53533936 C-110.73739789 383.62258425 -111.81000596 387.70975561 -112.8828125 391.796875 C-113.08397486 392.56325916 -113.28513721 393.32964333 -113.4923954 394.11925125 C-115.94771835 403.47225341 -118.40678686 412.8242562 -120.87329102 422.17431641 C-121.10104249 423.03769938 -121.32879396 423.90108234 -121.563447 424.79062843 C-122.48618836 428.28830287 -123.40903956 431.78594821 -124.33231544 435.2834816 C-126.82487039 444.72618472 -129.310469 454.17050762 -131.76428223 463.62335968 C-133.18761553 469.10548709 -134.62500499 474.5838303 -136.06854248 480.06066895 C-136.64472871 482.25832748 -137.2153102 484.45746364 -137.78009033 486.65808105 C-138.55631461 489.67973044 -139.35184486 492.69564372 -140.15234375 495.7109375 C-140.36929398 496.57619049 -140.5862442 497.44144348 -140.80976868 498.33291626 C-142.26308232 503.70057603 -144.0789447 507.02300228 -148 511 C-151.4492432 512.7246216 -155.22131431 512.36610104 -159 512 C-162.89958485 510.34060219 -164.40324754 508.8550996 -166 505 C-166.96909738 498.24619798 -165.22751125 491.85199329 -163.44897461 485.38500977 C-163.04156036 483.85097504 -163.04156036 483.85097504 -162.62591553 482.28594971 C-161.72865691 478.9181655 -160.81560966 475.55488154 -159.90234375 472.19140625 C-159.26795347 469.8230091 -158.63455288 467.45434666 -158.00209045 465.08543396 C-156.33286866 458.84401829 -154.65021841 452.60629997 -152.96472168 446.3692627 C-151.27632876 440.11227718 -149.60060664 433.85190281 -147.92382812 427.59179688 C-145.73072682 419.40966477 -143.5349233 411.22827901 -141.32872868 403.0496664 C-140.75308278 400.91397659 -140.17878253 398.77792356 -139.6059103 396.64148808 C-138.09329917 391.00841941 -136.55098974 385.38539562 -134.9704895 379.77096558 C-134.47563348 377.9918738 -134.47563348 377.9918738 -133.97078037 376.17684078 C-133.33727154 373.9010755 -132.69520106 371.62767073 -132.04331112 369.35710239 C-131.61920877 367.82373187 -131.61920877 367.82373187 -131.1865387 366.25938416 C-130.93276742 365.36221648 -130.67899614 364.46504881 -130.41753483 363.54069424 C-129.95069356 360.69997091 -130.20655638 358.75436872 -131 356 C-132.28693963 354.16222552 -132.28693963 354.16222552 -133.9375 352.6875 C-134.46214844 352.17574219 -134.98679687 351.66398437 -135.52734375 351.13671875 C-136.95381356 349.79632364 -136.95381356 349.79632364 -139 350 C-140.78627062 352.43866629 -142.44572444 354.88415366 -144.08203125 357.421875 C-144.59911148 358.21151642 -145.11619171 359.00115784 -145.64894104 359.81472778 C-146.77880189 361.542087 -147.90541542 363.27157345 -149.02923584 365.00286865 C-150.83509145 367.7848023 -152.64908596 370.56126626 -154.46533203 373.33642578 C-157.0252981 377.24935254 -159.58202079 381.16436804 -162.13623047 385.08105469 C-168.19116389 394.36190721 -174.2796761 403.62063988 -180.375 412.875 C-180.96657898 413.77347656 -181.55815796 414.67195313 -182.16766357 415.59765625 C-191.67820603 430.03532388 -201.27742698 444.41198498 -210.9375 458.75 C-211.55655212 459.67004822 -212.17560425 460.59009644 -212.81341553 461.5380249 C-214.56973396 464.14683261 -216.32917212 466.75350381 -218.08984375 469.359375 C-218.60108292 470.11886444 -219.11232208 470.87835388 -219.63905334 471.66085815 C-229.01936074 485.50968037 -229.01936074 485.50968037 -232 487 C-236.71541103 487.50909747 -240.71179229 487.64410386 -245 485.5 C-247.61220881 482.23473898 -249.05525656 479.22712663 -249 475 C-246.976705 468.62908606 -244.03366484 463.62060752 -240.2421875 458.1484375 C-239.6711026 457.30927292 -239.1000177 456.47010834 -238.5116272 455.60551453 C-237.28186386 453.79996347 -236.04845902 451.99688825 -234.81176758 450.19607544 C-231.48987532 445.35744185 -228.19630107 440.49955845 -224.8984375 435.64453125 C-223.89239471 434.16583809 -223.89239471 434.16583809 -222.86602783 432.65727234 C-216.65394737 423.517605 -210.55700722 414.30542234 -204.5 405.0625 C-203.4950043 403.53064762 -202.48995845 401.99882813 -201.48486328 400.46704102 C-199.42332217 397.32427479 -197.36280565 394.18083923 -195.30273438 391.03710938 C-189.75868143 382.5790144 -184.2007956 374.13002087 -178.6394043 365.68331909 C-176.81869037 362.91687026 -175.00009963 360.14903486 -173.18164062 357.38110352 C-170.36427436 353.096392 -167.53335201 348.82091266 -164.69311523 344.55133057 C-163.53680606 342.8089052 -162.38481133 341.06361095 -161.23657227 339.31585693 C-159.50727416 336.68614555 -157.76316578 334.06683164 -156.015625 331.44921875 C-155.49885193 330.65667191 -154.98207886 329.86412506 -154.449646 329.04756165 C-151.1328385 324.12234288 -147.91171766 319.96001862 -141.8671875 318.4765625 C-134.84969497 318.99943449 -130.49693049 323.21761721 -125.50390625 327.75 C-123.22461712 329.99818336 -123.22461712 329.99818336 -121 331 C-120.90565674 330.40098877 -120.81131348 329.80197754 -120.71411133 329.18481445 C-119.35460829 321.13007627 -117.39897196 313.2818187 -115.27856445 305.40063477 C-114.68484053 303.17754208 -114.11304965 300.94946108 -113.54101562 298.72070312 C-113.15758958 297.28609963 -112.7728692 295.85184132 -112.38671875 294.41796875 C-112.22193527 293.76160934 -112.05715179 293.10524994 -111.88737488 292.42900085 C-110.51711612 287.49090303 -108.46792082 284.64027385 -105 281 C-101.83350487 279.41675243 -98.42541806 279.35625764 -95 280 C-88.57502366 283.06448736 -86.15318856 288.20828681 -82.875 294.3125 C-82.31296875 295.33214844 -81.7509375 296.35179687 -81.171875 297.40234375 C-76.8275427 305.33123723 -72.6550699 313.35019261 -68.51220703 321.38574219 C-65.07173889 328.03319809 -61.46591081 334.56548797 -57.75 341.0625 C-52.79937827 349.72894812 -47.99407495 358.46539887 -43.28405762 367.26437378 C-42.55560921 368.62495371 -41.82571963 369.98476307 -41.09436035 371.34378052 C-40.07276069 373.24376522 -39.05693679 375.14671517 -38.04296875 377.05078125 C-37.45539795 378.15075439 -36.86782715 379.25072754 -36.26245117 380.3840332 C-35 383 -35 383 -35 385 C-34.34 384.67 -33.68 384.34 -33 384 C-33.24363281 382.948125 -33.24363281 382.948125 -33.4921875 381.875 C-34.02526268 378.85697435 -34.13281344 376.06286663 -34.125 373 C-34.12757813 371.989375 -34.13015625 370.97875 -34.1328125 369.9375 C-34 367 -34 367 -33.4296875 364.25 C-32.75935637 361.97540914 -32.75935637 361.97540914 -34 360 C-34.09683564 358.23132545 -34.12979382 356.45881697 -34.125 354.6875 C-34.12757813 353.74261719 -34.13015625 352.79773438 -34.1328125 351.82421875 C-34 349 -34 349 -33.4296875 346.26953125 C-32.75850693 343.97815902 -32.75850693 343.97815902 -34 342 C-34.09720427 340.06449136 -34.12977914 338.12544208 -34.125 336.1875 C-34.12757813 335.14980469 -34.13015625 334.11210937 -34.1328125 333.04296875 C-34 330 -34 330 -33.4296875 327.23828125 C-32.75986122 324.97376098 -32.75986122 324.97376098 -34 323 C-34.12207871 321.21140489 -34.17548448 319.41771619 -34.1875 317.625 C-34.20167969 316.66851562 -34.21585938 315.71203125 -34.23046875 314.7265625 C-33.99745572 311.96989983 -33.40920164 310.35052605 -32 308 C-32.99 306.515 -32.99 306.515 -34 305 C-34.23046875 302.4765625 -34.23046875 302.4765625 -34.1875 299.625 C-34.17783203 298.22121094 -34.17783203 298.22121094 -34.16796875 296.7890625 C-34 294 -34 294 -33.42578125 291.3359375 C-32.78034702 288.85692624 -32.78034702 288.85692624 -34 286 C-34.09419337 284.21032596 -34.12990998 282.41714437 -34.125 280.625 C-34.12757813 279.68914062 -34.13015625 278.75328125 -34.1328125 277.7890625 C-34 275 -34 275 -33.4296875 272.2734375 C-32.75833586 269.97870943 -32.75833586 269.97870943 -34 268 C-34.09683564 266.23132545 -34.12979382 264.45881697 -34.125 262.6875 C-34.12757813 261.74261719 -34.13015625 260.79773438 -34.1328125 259.82421875 C-34 257 -34 257 -33.4296875 254.26953125 C-32.75850693 251.97815902 -32.75850693 251.97815902 -34 250 C-34.07033769 248.12620395 -34.0843022 246.24998898 -34.0625 244.375 C-34.05347656 243.37210938 -34.04445312 242.36921875 -34.03515625 241.3359375 C-34.01775391 240.17964844 -34.01775391 240.17964844 -34 239 C-35.216875 239.0825 -36.43375 239.165 -37.6875 239.25 C-41.0726174 239.26200396 -41.93868234 239.03913893 -44.9375 237.125 C-48.7256771 233.22202966 -48.28525217 229.37247673 -48.375 224.1875 C-48.41238281 223.37990234 -48.44976562 222.57230469 -48.48828125 221.74023438 C-48.55360096 217.30938042 -48.45609147 215.57271421 -45.6015625 211.98828125 C-41.27759612 208.68362826 -37.66472276 208.69940997 -32.375 208.4375 C-31.17230469 208.37272461 -31.17230469 208.37272461 -29.9453125 208.30664062 C-27.9637489 208.20048543 -25.98189729 208.09973145 -24 208 C-24.96317139 207.5035498 -24.96317139 207.5035498 -25.94580078 206.99707031 C-41.07233722 199.19069225 -56.09828579 191.22749368 -71 183 C-72.28003906 182.29810547 -72.28003906 182.29810547 -73.5859375 181.58203125 C-74.40320313 181.13214844 -75.22046875 180.68226563 -76.0625 180.21875 C-76.79597656 179.81591797 -77.52945313 179.41308594 -78.28515625 178.99804688 C-80 178 -80 178 -81 177 C-81.1159353 175.25515314 -81.16187864 173.50562599 -81.18081665 171.7570343 C-81.19519775 170.62000565 -81.20957886 169.48297699 -81.22439575 168.31149292 C-81.24021194 166.42347458 -81.24021194 166.42347458 -81.25634766 164.49731445 C-81.27095032 163.18032059 -81.28555298 161.86332672 -81.30059814 160.50642395 C-81.43100605 148.34882864 -81.4967588 136.19030453 -81.54844093 124.03214741 C-81.58734746 115.04262823 -81.6556793 106.05436247 -81.76298869 97.06539375 C-81.83586558 90.74773024 -81.87427949 84.43040928 -81.88746679 78.11234254 C-81.89633147 74.33771227 -81.92057094 70.56463002 -81.98213577 66.79046059 C-82.03944487 63.23664003 -82.05404142 59.68516256 -82.03626251 56.13094902 C-82.03755761 54.20909089 -82.08351587 52.28742449 -82.13088989 50.3661499 C-82.03161179 42.09513338 -82.03161179 42.09513338 -79.04394436 38.92350006 C-76.75201546 37.36845502 -74.51545787 36.15037137 -72 35 C-70.89954346 34.38366699 -69.79908691 33.76733398 -68.6652832 33.13232422 C-67.63749756 32.6117041 -66.60971191 32.09108398 -65.55078125 31.5546875 C-63.80015381 30.66052124 -63.80015381 30.66052124 -62.01416016 29.74829102 C-61.41017395 29.44271271 -60.80618774 29.1371344 -60.18389893 28.82229614 C-56.96380885 27.19229686 -53.75348641 25.54328466 -50.54296875 23.89453125 C-49.90045166 23.56490891 -49.25793457 23.23528656 -48.59594727 22.89567566 C-42.72284772 19.87453988 -36.91411124 16.74154232 -31.125 13.5625 C-30.23917236 13.07797363 -29.35334473 12.59344727 -28.44067383 12.09423828 C-24.45584273 9.91112949 -20.48201732 7.71081642 -16.5234375 5.48046875 C-15.18236534 4.73684629 -13.84122457 3.99334754 -12.5 3.25 C-11.3759375 2.61578125 -10.251875 1.9815625 -9.09375 1.328125 C-5.615874 -0.16490258 -3.75309416 -0.32931366 0 0 Z M-95 324 C-96.06675662 326.98691854 -97.04400856 329.97657992 -98 333 C-98.21366211 333.62165039 -98.42732422 334.24330078 -98.64746094 334.88378906 C-101.75144217 343.02335345 -101.75144217 343.02335345 -101.08203125 351.26953125 C-99.19941899 353.17897409 -97.2487653 354.53904228 -95 356 C-93.29997076 357.35947851 -91.61340656 358.73589293 -89.9375 360.125 C-89.00164062 360.87652344 -88.06578125 361.62804687 -87.1015625 362.40234375 C-83.52517643 365.34017223 -80.17752934 368.51244288 -76.8125 371.6875 C-72.08407409 376.14521695 -67.33501091 380.26549237 -62 384 C-63.52734169 379.94262703 -65.42189077 376.140344 -67.45703125 372.3203125 C-67.96662384 371.35766983 -67.96662384 371.35766983 -68.48651123 370.37557983 C-69.59207183 368.29038835 -70.70195331 366.20753972 -71.8125 364.125 C-72.18905731 363.41690186 -72.56561462 362.70880371 -72.95358276 361.97924805 C-79.75472586 349.19621137 -86.77277639 336.54782042 -94 324 C-94.33 324 -94.66 324 -95 324 Z M88 324 C87.51140503 324.90987671 87.51140503 324.90987671 87.01293945 325.83813477 C80.30046532 338.32289172 73.50752822 350.75345047 66.49145508 363.07055664 C65.49417551 364.82224831 64.49969798 366.57553882 63.50830078 368.33056641 C62.43055928 370.23798395 61.34467885 372.14081207 60.25341797 374.04052734 C59.41447998 375.52673584 59.41447998 375.52673584 58.55859375 377.04296875 C58.04482178 377.94426514 57.5310498 378.84556152 57.00170898 379.77416992 C56.67114502 380.50869385 56.34058105 381.24321777 56 382 C56.33 382.66 56.66 383.32 57 384 C57.81082031 383.23816406 58.62164062 382.47632813 59.45703125 381.69140625 C65.52589463 376.02122732 71.66720792 370.57074947 78.15234375 365.375 C82.16191469 362.03094083 85.96527344 358.4791069 89.76171875 354.89648438 C93.80430453 351.09784773 93.80430453 351.09784773 96 350 C93.04883233 336.84672867 93.04883233 336.84672867 89 324 C88.67 324 88.34 324 88 324 Z " fill="#4F5392" transform="translate(259,0)"/>
<path d="M0 0 C1.82641602 0.21630859 1.82641602 0.21630859 4 1 C5.44116211 2.95166016 5.44116211 2.95166016 6.77734375 5.5390625 C7.28362305 6.49941406 7.78990234 7.45976562 8.31152344 8.44921875 C9.11638184 10.02123047 9.11638184 10.02123047 9.9375 11.625 C11.1060496 13.8474192 12.27667222 16.06874948 13.44921875 18.2890625 C14.0426709 19.41860352 14.63612305 20.54814453 15.24755859 21.71191406 C17.81646449 26.53192306 20.53009138 31.26412904 23.25 36 C28.90873487 45.91124939 34.26651734 55.9680393 39.58731079 66.06289673 C44.90627521 76.14943931 50.36541276 86.132145 56.06640625 96.00976562 C56.55882812 96.86634766 57.05125 97.72292969 57.55859375 98.60546875 C57.98454834 99.33918701 58.41050293 100.07290527 58.84936523 100.82885742 C60.08628467 103.16281127 61.06056024 105.53298951 62 108 C59.36 108 56.72 108 54 108 C53.5781543 107.2064209 53.15630859 106.4128418 52.72167969 105.59521484 C44.86519167 90.82220388 36.98399496 76.06556036 28.9453125 61.390625 C26.24092317 56.45121833 23.5663841 51.49603436 20.89526367 46.53857422 C18.73832915 42.54292625 16.56614693 38.55568701 14.39208984 34.56933594 C13.17779545 32.32815141 11.98541757 30.0772441 10.80078125 27.8203125 C10.20652344 26.72460938 9.61226563 25.62890625 9 24.5 C8.525625 23.6028125 8.05125 22.705625 7.5625 21.78125 C7.046875 21.1934375 6.53125 20.605625 6 20 C3.43476659 19.85144953 3.43476659 19.85144953 1 20 C-3.39951594 35.16802707 -7.54971849 50.39181846 -11.5859375 65.66015625 C-12.20687991 68.0030491 -12.82800878 70.34589254 -13.4493103 72.68869019 C-14.75517136 77.61410415 -16.05986591 82.53982497 -17.36364746 87.46578979 C-19.38697585 95.10955953 -21.41434859 102.75225306 -23.44238281 110.39477539 C-28.71964798 130.28471415 -33.99630178 150.17479345 -39.23880005 170.07392883 C-40.57137489 175.13170208 -41.90789326 180.18842926 -43.24606895 185.24472332 C-44.39021662 189.5696339 -45.52477266 193.89699661 -46.65771484 198.22485352 C-47.22451171 200.36746225 -47.79169969 202.50996758 -48.359375 204.65234375 C-48.60376312 205.59560516 -48.84815125 206.53886658 -49.09994507 207.51071167 C-49.32445343 208.35143219 -49.54896179 209.19215271 -49.78027344 210.05834961 C-49.96958435 210.77897079 -50.15889526 211.49959198 -50.35394287 212.24205017 C-51 214 -51 214 -53 216 C-55.125 215.625 -55.125 215.625 -57 215 C-58.68302908 210.88675742 -57.26087951 207.18613124 -56.13598633 203.10717773 C-55.92400825 202.30869195 -55.71203016 201.51020617 -55.4936285 200.68752384 C-54.78220918 198.01701743 -54.05710252 195.35042303 -53.33203125 192.68359375 C-52.82379556 190.7865639 -52.31642906 188.889301 -51.80987549 186.99182129 C-50.439947 181.86955909 -49.05835124 176.75050909 -47.67470169 171.63193893 C-46.2343978 166.29564363 -44.80496424 160.9564398 -43.37475586 155.61743164 C-41.04570824 146.92723758 -38.71112262 138.2385503 -36.37304688 129.55078125 C-33.30925038 118.16351545 -30.26631171 106.77078562 -27.234375 95.375 C-26.78566035 93.6888884 -26.33694515 92.00277695 -25.88822937 90.31666565 C-25.0249184 87.07231958 -24.16176203 83.82793241 -23.29867554 80.58352661 C-20.45233875 69.88488414 -17.60100602 59.18761374 -14.734519 48.49435139 C-13.48113995 43.8132267 -12.24093974 39.12873676 -11.00583363 34.44275951 C-10.10272297 31.02188481 -9.19322686 27.60272615 -8.28262138 24.1838398 C-7.84590303 22.53841876 -7.41190314 20.8922735 -6.98079109 19.24537468 C-6.38163207 16.95792295 -5.77283452 14.67323711 -5.16186523 12.38891602 C-4.98741064 11.71324396 -4.81295605 11.03757191 -4.63321495 10.34142494 C-3.58788725 6.47879038 -2.22700282 3.32560343 0 0 Z " fill="#C8D0DA" transform="translate(159,288)"/>
<path d="M0 0 C1.96990967 0.24575806 1.96990967 0.24575806 4 1 C7.60839876 8.47250146 9.20219412 16.90601681 11.296875 24.9140625 C11.72251017 26.5283839 12.14855171 28.1425982 12.57496643 29.75671387 C13.49067892 33.22574922 14.40396103 36.69541155 15.31533813 40.16558838 C17.51759162 48.54985401 19.73315398 56.93060817 21.94709206 65.31179428 C22.72146904 68.24383549 23.49536583 71.17600315 24.26921082 74.10818481 C29.66397951 94.5433841 35.11537832 114.96336113 40.57832336 135.3804245 C41.53594024 138.96028755 42.49260907 142.54040366 43.4493084 146.12051201 C44.364139 149.54302945 45.27991555 152.96529341 46.19581985 156.38752365 C46.85404219 158.84827249 47.51106074 161.30934072 48.1680603 163.77041626 C50.30192954 171.75116595 52.47095169 179.72027445 54.70068359 187.67480469 C55.13136819 189.21983232 55.56188827 190.76490582 55.99223328 192.31002808 C56.7948826 195.19186503 57.60984404 198.06981019 58.4322052 200.94607544 C58.78610825 202.2153891 59.14001129 203.48470276 59.50463867 204.79248047 C59.97603523 206.45414749 59.97603523 206.45414749 60.45695496 208.14938354 C60.98452851 210.91878519 60.96101417 212.38957389 60 215 C58.125 215.625 58.125 215.625 56 216 C53.82807604 213.82807604 53.52442976 212.89418199 52.7618866 210.00117493 C52.53710475 209.16195779 52.3123229 208.32274065 52.08072948 207.45809269 C51.84034608 206.53259837 51.59996267 205.60710405 51.35229492 204.65356445 C51.09273419 203.67654037 50.83317347 202.69951628 50.56574726 201.6928854 C49.69748143 198.41803397 48.83902841 195.14068954 47.98046875 191.86328125 C47.36800032 189.54559491 46.75491003 187.22807281 46.14123535 184.91070557 C44.83135647 179.95917537 43.52574269 175.00654776 42.22348022 170.05300903 C40.36107475 162.96892258 38.49120475 155.88682704 36.61872923 148.80539501 C33.70917863 137.80167877 30.80426043 126.79674733 27.90234375 115.79101562 C23.19589773 97.94357632 18.47058433 80.10116283 13.73187733 62.2622633 C12.37859761 57.16755492 11.02783268 52.07218974 9.6793499 46.97620964 C8.85712044 43.87045845 8.03312599 40.76517763 7.20863342 37.66002655 C6.83222653 36.24097125 6.45655556 34.82172051 6.0816803 33.40225983 C5.57818741 31.49623936 5.07177619 29.59099049 4.56518555 27.68579102 C4.28482956 26.62763687 4.00447357 25.56948273 3.71562195 24.47926331 C3.08898575 22.02661429 3.08898575 22.02661429 2 20 C0.35 20 -1.3 20 -3 20 C-10.8036641 33.5486296 -18.29602262 47.23246031 -25.58676147 61.06134033 C-30.82778756 70.99603146 -36.19497063 80.83608109 -41.80273438 90.5703125 C-45.08357698 96.28222006 -48.11678639 102.07725397 -51 108 C-53.64 108 -56.28 108 -59 108 C-53.21234845 96.11829181 -46.97323434 84.51741413 -40.60742188 72.93701172 C-38.44814242 68.9916697 -36.31668299 65.0315841 -34.18408203 61.07177734 C-28.84614113 51.16580632 -23.39673273 41.33239315 -17.83129883 31.55249023 C-13.35264265 23.66822482 -8.99902175 15.71954901 -4.69311523 7.73974609 C-4.22204346 6.86914551 -3.75097168 5.99854492 -3.265625 5.1015625 C-2.85086914 4.33150879 -2.43611328 3.56145508 -2.00878906 2.76806641 C-1 1 -1 1 0 0 Z " fill="#C8D1DA" transform="translate(350,288)"/>
<path d="M0 0 C0.66 0 1.32 0 2 0 C2.32572998 0.60658447 2.65145996 1.21316895 2.98706055 1.83813477 C9.78057629 14.47362375 16.65882539 27.05129533 23.7722168 39.51000977 C24.53852417 40.85470337 24.53852417 40.85470337 25.3203125 42.2265625 C25.76648926 43.00596191 26.21266602 43.78536133 26.67236328 44.58837891 C28.19304241 47.35065703 29.58984785 50.1796957 31 53 C11.2 53 -8.6 53 -29 53 C-25.25340667 45.50681335 -21.51328883 38.21559738 -17.3125 31 C-11.39506982 20.74581019 -5.66735941 10.39409927 0 0 Z " fill="#EA99AC" transform="translate(255,117)"/>
<path d="M0 0 C19.8 0 39.6 0 60 0 C58.02 3.63 56.04 7.26 54 11 C52.60201172 13.58328125 52.60201172 13.58328125 51.17578125 16.21875 C46.15896297 25.48417 41.09408597 34.72171441 35.875 43.875 C35.41391846 44.69548828 34.95283691 45.51597656 34.4777832 46.36132812 C34.04941162 47.10576172 33.62104004 47.85019531 33.1796875 48.6171875 C32.80569824 49.27315918 32.43170898 49.92913086 32.04638672 50.60498047 C31.7010791 51.06533691 31.35577148 51.52569336 31 52 C30.34 52 29.68 52 29 52 C28.63874023 51.35264893 28.27748047 50.70529785 27.90527344 50.03833008 C20.94082371 37.56457385 13.96069159 25.10251382 6.82128906 12.7277832 C6.36077148 11.92687256 5.90025391 11.12596191 5.42578125 10.30078125 C5.02786377 9.61153564 4.62994629 8.92229004 4.2199707 8.2121582 C2.73372022 5.51715809 1.37636958 2.75273916 0 0 Z " fill="#EA99AC" transform="translate(226,47)"/>
<path d="M0 0 C29.7 0 59.4 0 90 0 C90 4.95 90 9.9 90 15 C60.3 15 30.6 15 0 15 C0 10.05 0 5.1 0 0 Z " fill="#39B4D5" transform="translate(211,404)"/>
<path d="M0 0 C1.79966736 1.85557556 1.79966736 1.85557556 3.42163086 4.40991211 C4.01853729 5.32731171 4.61544373 6.2447113 5.23043823 7.18991089 C5.81439362 8.1172403 6.398349 9.0445697 7 10 C8.03300722 11.55213318 9.06878077 13.10242975 10.10766602 14.65063477 C11.15785461 16.24661075 12.20654831 17.84357122 13.25390625 19.44140625 C13.82753403 20.31365341 14.4011618 21.18590057 14.99217224 22.08457947 C16.2158243 23.94532543 17.43887944 25.80646405 18.66137695 27.66796875 C21.91782907 32.62603942 25.17935668 37.58076707 28.44140625 42.53515625 C29.09299713 43.52484406 29.74458801 44.51453186 30.41592407 45.53421021 C35.91229803 53.8774049 41.44681141 62.19455296 47 70.5 C57.04537389 85.52697229 66.99402927 100.61710564 76.9296875 115.71679688 C77.51770142 116.6099762 78.10571533 117.50315552 78.71154785 118.42340088 C79.85977595 120.16851925 81.00685704 121.91439294 82.15270996 123.66107178 C84.76051052 127.63057012 87.38727783 131.58267762 90.08007812 135.49511719 C90.55193542 136.18531952 91.02379272 136.87552185 91.50994873 137.5866394 C92.38033308 138.85603686 93.25811735 140.12040712 94.14483643 141.37844849 C96.38203811 144.65061842 97 145.8900895 97 150 C95.35 150.33 93.7 150.66 92 151 C75.46471043 126.59322334 59.04779718 102.11684512 42.89083862 77.45793152 C36.76855113 68.11565084 30.62189515 58.78943585 24.47460938 49.46359253 C22.03525937 45.76255944 19.59698129 42.06082114 17.15939331 38.35862732 C16.02844765 36.64394736 14.89514572 34.93081881 13.75930786 33.21937561 C11.16134682 29.30292454 8.59546059 25.37450414 6.10888672 21.38623047 C5.65972397 20.67820786 5.21056122 19.97018524 4.74778748 19.2407074 C3.91868502 17.93149289 3.10306388 16.6135989 2.30409241 15.28578186 C1.11875941 13.3439185 1.11875941 13.3439185 -1 11 C-3.58059893 10.31735383 -3.58059893 10.31735383 -6 11 C-8.69761362 12.95103998 -8.69761362 12.95103998 -11.1875 15.5 C-15.81944444 20 -15.81944444 20 -18 20 C-18.9140625 16.93359375 -18.9140625 16.93359375 -19 13 C-17.21605438 10.21192186 -14.87283841 8.20807914 -12.375 6.0625 C-11.74464844 5.47404297 -11.11429687 4.88558594 -10.46484375 4.27929688 C-4.95222802 -0.65455151 -4.95222802 -0.65455151 0 0 Z " fill="#C8D1DA" transform="translate(396,328)"/>
<path d="M0 0 C5.898393 0.34115515 8.78729961 2.77756395 12.9375 6.625 C13.83952148 7.38876953 13.83952148 7.38876953 14.75976562 8.16796875 C16.44749135 9.71070085 17.79925967 11.05196943 19 13 C18.87890625 16.8984375 18.87890625 16.8984375 18 20 C13.93546171 18.20762009 11.24798771 15.52984887 8.09765625 12.4609375 C5.45428329 10.61992914 4.1686807 10.59306563 1 11 C-0.74958865 12.55813321 -0.74958865 12.55813321 -2.07104492 14.80102539 C-2.61899216 15.6335231 -3.16693939 16.46602081 -3.73149109 17.32374573 C-4.30865372 18.2391362 -4.88581635 19.15452667 -5.48046875 20.09765625 C-6.09336258 21.03870712 -6.70625641 21.979758 -7.33772278 22.94932556 C-9.30424496 25.97667658 -11.24615069 29.01895906 -13.1875 32.0625 C-14.47558798 34.05638962 -15.76528464 36.04924099 -17.05664062 38.04101562 C-19.57492378 41.92862142 -22.08517271 45.82122867 -24.58959961 49.71777344 C-27.76317546 54.64619637 -30.99238729 59.53396057 -34.25686646 64.40245056 C-37.6816161 69.51180891 -41.0651456 74.64755082 -44.44140625 79.7890625 C-60.11728092 103.64785804 -75.94780333 127.3926976 -92 151 C-93.65 150.67 -95.3 150.34 -97 150 C-96.67404451 143.73988591 -93.47422632 139.68881112 -90.015625 134.7109375 C-89.4041864 133.81243073 -88.7927478 132.91392395 -88.16278076 131.9881897 C-86.2016408 129.11029408 -84.22646105 126.24238962 -82.25 123.375 C-79.68900472 119.63533913 -77.13344542 115.89197754 -74.578125 112.1484375 C-73.62027855 110.74791893 -73.62027855 110.74791893 -72.64308167 109.31910706 C-66.83178838 100.80259076 -61.21770552 92.16590794 -55.62408447 83.50561523 C-50.48477872 75.57676485 -45.2644635 67.70031213 -40.0625 59.8125 C-39.44280334 58.87253174 -38.82310669 57.93256348 -38.18463135 56.96411133 C-29.60871567 43.95790522 -21.01156413 30.96601887 -12.375 18 C-11.9118338 17.3039566 -11.4486676 16.60791321 -10.97146606 15.89077759 C-9.6776256 13.94712373 -8.38212068 12.00459209 -7.0859375 10.0625 C-6.3645459 8.98097656 -5.6431543 7.89945312 -4.89990234 6.78515625 C-3.32231748 4.47250036 -1.70439364 2.21992424 0 0 Z " fill="#C8D1DA" transform="translate(116,328)"/>
<path d="M0 0 C0.70079681 -0.00175232 1.40159363 -0.00350464 2.12362671 -0.00531006 C4.45093224 -0.00972813 6.77816239 -0.00679076 9.10546875 -0.00341797 C10.71590184 -0.00409102 12.32633484 -0.00506106 13.93676758 -0.00631714 C17.3162533 -0.00779405 20.69571265 -0.00563978 24.07519531 -0.00097656 C28.4167338 0.00472073 32.75821048 0.00144169 37.0997467 -0.00454903 C40.42647776 -0.00815482 43.75319405 -0.00701597 47.07992554 -0.00442123 C48.68118293 -0.00375202 50.28244165 -0.00458021 51.88369751 -0.00690079 C54.11781386 -0.00942762 56.35182875 -0.00558632 58.5859375 0 C60.49669067 0.00119339 60.49669067 0.00119339 62.44604492 0.00241089 C65.29296875 0.12939453 65.29296875 0.12939453 66.29296875 1.12939453 C66.29296875 5.08939453 66.29296875 9.04939453 66.29296875 13.12939453 C41.87296875 13.12939453 17.45296875 13.12939453 -7.70703125 13.12939453 C-7.70703125 0.00481354 -7.70703125 0.00481354 0 0 Z " fill="#39B3D4" transform="translate(226.70703125,216.87060546875)"/>
<path d="M0 0 C3.95093599 1.56942492 6.14082792 4.1042696 8.9375 7.25 C9.90030488 8.32487917 10.86388162 9.39906733 11.828125 10.47265625 C12.33666016 11.04129395 12.84519531 11.60993164 13.36914062 12.19580078 C16.83463385 16.02963236 20.39087771 19.78120821 23.93530273 23.54199219 C28 27.89001459 28 27.89001459 28 29 C10.18 29 -7.64 29 -26 29 C-19.38320966 21.28041127 -12.7651998 13.66142864 -5.5078125 6.5390625 C-3.49961696 4.48924633 -1.7314931 2.28557089 0 0 Z " fill="#EA99AC" transform="translate(255,10)"/>
<path d="M0 0 C17.82 0 35.64 0 54 0 C50.27391794 4.34709574 46.56512639 8.61317424 42.6875 12.8125 C37.75033622 18.17182582 32.86274463 23.57293686 28 29 C24.29703581 27.48705075 22.2799836 25.3194126 19.6875 22.3125 C16.99322412 19.23899708 14.29804961 16.23206655 11.375 13.375 C2.15086207 4.30172414 2.15086207 4.30172414 0 0 Z " fill="#EA99AC" transform="translate(229,178)"/>
<path d="M0 0 C0.33 0 0.66 0 1 0 C1 15.18 1 30.36 1 46 C-7.58 46 -16.16 46 -25 46 C-23.53976486 41.61929457 -22.26695388 38.39104645 -20.05859375 34.47265625 C-19.47875732 33.43939209 -18.8989209 32.40612793 -18.30151367 31.34155273 C-17.3788269 29.71842163 -17.3788269 29.71842163 -16.4375 28.0625 C-15.81141846 26.95398682 -15.18533691 25.84547363 -14.5402832 24.70336914 C-10.97704899 18.41630546 -7.38367664 12.14748046 -3.6875 5.9375 C-3.32132568 5.3194751 -2.95515137 4.7014502 -2.57788086 4.06469727 C-1.74862395 2.69120899 -0.87936505 1.34195908 0 0 Z " fill="#E797AC" transform="translate(288,59)"/>
<path d="M0 0 C2.87154652 2.87154652 4.36229999 5.17988521 6.29296875 8.70703125 C6.92001709 9.845354 7.54706543 10.98367676 8.19311523 12.15649414 C8.8580299 13.37509743 9.52282283 14.59376715 10.1875 15.8125 C11.5345912 18.26665288 12.88465422 20.71916762 14.234375 23.171875 C14.56263779 23.76968277 14.89090057 24.36749054 15.22911072 24.9834137 C18.32118835 30.60679515 21.52470076 36.15984142 24.77734375 41.69140625 C26 44 26 44 26 46 C17.42 46 8.84 46 0 46 C0 30.82 0 15.64 0 0 Z " fill="#E797AC" transform="translate(223,59)"/>
<path d="M0 0 C8.58 0 17.16 0 26 0 C26 15.18 26 30.36 26 46 C23.12845348 43.12845348 21.63770001 40.82011479 19.70703125 37.29296875 C19.07998291 36.154646 18.45293457 35.01632324 17.80688477 33.84350586 C17.1419701 32.62490257 16.47717717 31.40623285 15.8125 30.1875 C14.4654088 27.73334712 13.11534578 25.28083238 11.765625 22.828125 C11.43736221 22.23031723 11.10909943 21.63250946 10.77088928 21.0165863 C7.67881165 15.39320485 4.47529924 9.84015858 1.22265625 4.30859375 C0 2 0 2 0 0 Z " fill="#E998AC" transform="translate(263,112)"/>
<path d="M0 0 C8.58 0 17.16 0 26 0 C24.56471819 3.58820452 23.13324565 6.76975137 21.3125 10.140625 C20.78301758 11.12160156 20.25353516 12.10257813 19.70800781 13.11328125 C19.14436523 14.14839844 18.58072266 15.18351562 18 16.25 C17.4234668 17.31089844 16.84693359 18.37179688 16.25292969 19.46484375 C12.66953657 26.02615329 9.02557791 32.54724519 5.25 39 C4.83234375 39.71704102 4.4146875 40.43408203 3.984375 41.17285156 C3.02032254 42.80050433 2.01506322 44.40366127 1 46 C0.67 46 0.34 46 0 46 C0 30.82 0 15.64 0 0 Z " fill="#E998AC" transform="translate(223,112)"/>
<path d="M0 0 C2.71415877 2.71415877 4.03055751 4.6208416 5.78515625 7.9453125 C6.31149658 8.93257324 6.83783691 9.91983398 7.38012695 10.93701172 C7.93531006 11.98904785 8.49049316 13.04108398 9.0625 14.125 C13.54959739 22.53981048 18.14531399 30.84969343 23.10375977 38.99658203 C26 43.79918521 26 43.79918521 26 46 C17.42 46 8.84 46 0 46 C0 30.82 0 15.64 0 0 Z " fill="#D3899D" transform="translate(186,124)"/>
<path d="M0 0 C8.58 0 17.16 0 26 0 C26 15.18 26 30.36 26 46 C23.23895265 44.61947632 22.72096046 42.92088327 21.28515625 40.19921875 C20.75422363 39.20196777 20.22329102 38.2047168 19.67626953 37.17724609 C19.12310059 36.12875488 18.56993164 35.08026367 18 34 C16.91707206 31.98475861 15.83243817 29.970433 14.74609375 27.95703125 C13.08440509 24.87159989 11.42325585 21.78592758 9.76757812 18.69726562 C7.32833003 14.17467395 4.87012575 9.71473784 2.09765625 5.38671875 C0 2 0 2 0 0 Z " fill="#EAB3C4" transform="translate(300,47)"/>
<path d="M0 0 C8.58 0 17.16 0 26 0 C19.53134345 13.3178223 12.36378102 26.1589637 5 39 C4.20286289 40.39438144 3.40594845 41.78889023 2.609375 43.18359375 C2.07828125 44.11300781 1.5471875 45.04242188 1 46 C0.67 46 0.34 46 0 46 C0 30.82 0 15.64 0 0 Z " fill="#D3899D" transform="translate(186,47)"/>
<path d="M0 0 C8.58 0 17.16 0 26 0 C26 14.85 26 29.7 26 45 C23.01393359 41.26741699 20.82750109 38.14465527 18.57421875 34.02734375 C17.94193359 32.87943359 17.30964844 31.73152344 16.65820312 30.54882812 C16.00103904 29.34519566 15.34413883 28.1414191 14.6875 26.9375 C13.40197565 24.59121594 12.11356407 22.24652987 10.82421875 19.90234375 C10.19563965 18.75878418 9.56706055 17.61522461 8.91943359 16.43701172 C6.43734689 11.99249167 3.86196611 7.60879734 1.26098633 3.23266602 C0 1 0 1 0 0 Z " fill="#EA99AC" transform="translate(189,112)"/>
<path d="M0 0 C8.25 0 16.5 0 25 0 C24.1148617 3.54055319 23.12620751 5.88200524 21.41015625 9.04296875 C20.87745117 10.02716797 20.34474609 11.01136719 19.79589844 12.02539062 C19.22387695 13.06888672 18.65185547 14.11238281 18.0625 15.1875 C17.48145508 16.25291016 16.90041016 17.31832031 16.30175781 18.41601562 C12.69836146 24.99097992 9.03450159 31.52749393 5.25 38 C4.83242432 38.71696045 4.41484863 39.4339209 3.98461914 40.17260742 C3.02044816 41.80032018 2.01512332 43.40356674 1 45 C0.67 45 0.34 45 0 45 C0 30.15 0 15.3 0 0 Z " fill="#E799AD" transform="translate(297,112)"/>
<path d="M0 0 C2.88819347 2.88819347 4.38671531 5.22681045 6.328125 8.77734375 C6.96363281 9.93169922 7.59914063 11.08605469 8.25390625 12.27539062 C8.91954438 13.49594461 9.58490797 14.71664836 10.25 15.9375 C11.54457208 18.30204916 12.84234084 20.66483126 14.140625 23.02734375 C14.45817749 23.60745209 14.77572998 24.18756042 15.10290527 24.7852478 C17.86929273 29.81835561 20.78061506 34.75304847 23.74121094 39.67407227 C25 42 25 42 25 44 C16.75 44 8.5 44 0 44 C0 29.48 0 14.96 0 0 Z " fill="#EB9AAD" transform="translate(297,60)"/>
<path d="M0 0 C0.33 0 0.66 0 1 0 C1 14.52 1 29.04 1 44 C-7.25 44 -15.5 44 -24 44 C-22.52574537 39.5772361 -21.32531344 36.53532415 -19.0234375 32.65625 C-18.43836426 31.66302734 -17.85329102 30.66980469 -17.25048828 29.64648438 C-16.63157715 28.60814453 -16.01266602 27.56980469 -15.375 26.5 C-14.10891168 24.35444001 -12.84328481 22.20860764 -11.578125 20.0625 C-10.96517578 19.02609375 -10.35222656 17.9896875 -9.72070312 16.921875 C-7.48941531 13.13299126 -5.29801215 9.32253059 -3.125 5.5 C-2.50882813 4.4171875 -1.89265625 3.334375 -1.2578125 2.21875 C-0.63519531 1.12046875 -0.63519531 1.12046875 0 0 Z " fill="#EA99AC" transform="translate(214,60)"/>
<path d="M0 0 C0.33 0 0.66 0 1 0 C1 14.52 1 29.04 1 44 C-7.25 44 -15.5 44 -24 44 C-22.37085843 39.92714607 -20.62762803 36.34199396 -18.515625 32.51953125 C-18.17754822 31.90663742 -17.83947144 31.29374359 -17.4911499 30.66227722 C-16.77641735 29.36807538 -16.06026369 28.07465746 -15.34277344 26.78198242 C-14.26399875 24.83772965 -13.19023081 22.89077997 -12.1171875 20.94335938 C-3.087568 4.59433887 -3.087568 4.59433887 0 0 Z " fill="#EFB6C6" transform="translate(324,126)"/>
<path d="M0 0 C0.92607559 -0.00570007 1.85215118 -0.01140015 2.80628967 -0.01727295 C4.76920422 -0.02673751 6.73213476 -0.03326269 8.69506836 -0.03710938 C11.70649748 -0.04682288 14.71724665 -0.07783565 17.72851562 -0.109375 C19.63150634 -0.11590385 21.53450197 -0.12115479 23.4375 -0.125 C24.34273911 -0.1373468 25.24797821 -0.1496936 26.1806488 -0.16241455 C27.01814163 -0.15941345 27.85563446 -0.15641235 28.71850586 -0.15332031 C29.82650795 -0.15878876 29.82650795 -0.15878876 30.95689392 -0.16436768 C32.78515625 0.203125 32.78515625 0.203125 34.78515625 3.203125 C35.09765625 5.703125 35.09765625 5.703125 34.78515625 8.203125 C33.51342773 9.83511353 33.51342773 9.83511353 31.78515625 11.203125 C28.736531 11.50160493 25.8965553 11.62334345 22.84765625 11.6015625 C21.97117432 11.60443268 21.09469238 11.60730286 20.19165039 11.61026001 C18.33902337 11.61230098 16.48637483 11.60676878 14.63378906 11.59423828 C11.79573446 11.57818484 8.95910398 11.59408555 6.12109375 11.61328125 C4.32161144 11.61129882 2.52213001 11.60745516 0.72265625 11.6015625 C-0.1273999 11.60763519 -0.97745605 11.61370789 -1.85327148 11.6199646 C-7.74411553 11.5495319 -7.74411553 11.5495319 -9.97827148 9.90542603 C-11.21484375 8.203125 -11.21484375 8.203125 -10.96484375 4.578125 C-9.5738673 -1.68126905 -5.56230267 0.0260554 0 0 Z " fill="#39B3D4" transform="translate(244.21484375,311.796875)"/>
<path d="M0 0 C0.87789688 -0.00570007 1.75579376 -0.01140015 2.66029358 -0.01727295 C4.5188781 -0.02672651 6.37747941 -0.03325834 8.23608398 -0.03710938 C11.08281564 -0.04682435 13.92882823 -0.07784779 16.77539062 -0.109375 C18.57942279 -0.11590406 20.38346012 -0.12115491 22.1875 -0.125 C23.04069321 -0.1373468 23.89388641 -0.1496936 24.77293396 -0.16241455 C30.69389253 -0.14003915 30.69389253 -0.14003915 32.92066956 1.49884033 C34.16015625 3.203125 34.16015625 3.203125 33.97265625 6.828125 C33.70453125 7.941875 33.43640625 9.055625 33.16015625 10.203125 C29.74126177 11.91257224 25.82926022 11.38808236 22.06640625 11.40625 C20.71270935 11.41480011 20.71270935 11.41480011 19.33166504 11.42352295 C17.42180557 11.43297606 15.51192976 11.43950817 13.60205078 11.44335938 C10.67191411 11.45308597 7.74247257 11.48411462 4.8125 11.515625 C2.9596396 11.52215282 1.10677416 11.52740416 -0.74609375 11.53125 C-2.06643616 11.5497702 -2.06643616 11.5497702 -3.41345215 11.56866455 C-5.88085938 11.55957031 -5.88085938 11.55957031 -9.83984375 11.203125 C-11.83984375 8.203125 -11.83984375 8.203125 -11.58984375 4.578125 C-11.34234375 3.464375 -11.09484375 2.350625 -10.83984375 1.203125 C-7.48226493 -0.47566441 -3.69351277 0.01835437 0 0 Z " fill="#39B2D3" transform="translate(244.83984375,274.796875)"/>
<path d="M0 0 C0.87789688 -0.00570007 1.75579376 -0.01140015 2.66029358 -0.01727295 C4.5188781 -0.02672651 6.37747941 -0.03325834 8.23608398 -0.03710938 C11.08281564 -0.04682435 13.92882823 -0.07784779 16.77539062 -0.109375 C18.57942279 -0.11590406 20.38346012 -0.12115491 22.1875 -0.125 C23.04069321 -0.1373468 23.89388641 -0.1496936 24.77293396 -0.16241455 C30.69285262 -0.14004308 30.69285262 -0.14004308 32.92457581 1.49884033 C34.16015625 3.203125 34.16015625 3.203125 33.91015625 6.828125 C33.16015625 10.203125 33.16015625 10.203125 32.16015625 11.203125 C29.081051 11.32913786 26.02561232 11.391821 22.9453125 11.40625 C21.55619911 11.41480011 21.55619911 11.41480011 20.13902283 11.42352295 C18.17610828 11.43298751 16.21317774 11.43951269 14.25024414 11.44335938 C11.23881502 11.45307288 8.22806585 11.48408565 5.21679688 11.515625 C3.31380616 11.52215385 1.41081053 11.52740479 -0.4921875 11.53125 C-1.39742661 11.5435968 -2.30266571 11.5559436 -3.2353363 11.56866455 C-4.07282913 11.56566345 -4.91032196 11.56266235 -5.77319336 11.55957031 C-6.51186142 11.56321594 -7.25052948 11.56686157 -8.01158142 11.57061768 C-9.83984375 11.203125 -9.83984375 11.203125 -11.83984375 8.203125 C-11.58984375 4.578125 -11.58984375 4.578125 -10.83984375 1.203125 C-7.48226493 -0.47566441 -3.69351277 0.01835437 0 0 Z " fill="#38B3D4" transform="translate(244.83984375,237.796875)"/>
<path d="M0 0 C0.92607559 -0.00570007 1.85215118 -0.01140015 2.80628967 -0.01727295 C4.76920422 -0.02673751 6.73213476 -0.03326269 8.69506836 -0.03710938 C11.70649748 -0.04682288 14.71724665 -0.07783565 17.72851562 -0.109375 C19.63150634 -0.11590385 21.53450197 -0.12115479 23.4375 -0.125 C24.34273911 -0.1373468 25.24797821 -0.1496936 26.1806488 -0.16241455 C27.01814163 -0.15941345 27.85563446 -0.15641235 28.71850586 -0.15332031 C29.82650795 -0.15878876 29.82650795 -0.15878876 30.95689392 -0.16436768 C32.78515625 0.203125 32.78515625 0.203125 34.78515625 3.203125 C35.09765625 5.703125 35.09765625 5.703125 34.78515625 8.203125 C33.51342773 9.83511353 33.51342773 9.83511353 31.78515625 11.203125 C28.736531 11.50160493 25.8965553 11.62334345 22.84765625 11.6015625 C21.97117432 11.60443268 21.09469238 11.60730286 20.19165039 11.61026001 C18.33902337 11.61230098 16.48637483 11.60676878 14.63378906 11.59423828 C11.79573446 11.57818484 8.95910398 11.59408555 6.12109375 11.61328125 C4.32161144 11.61129882 2.52213001 11.60745516 0.72265625 11.6015625 C-0.1273999 11.60763519 -0.97745605 11.61370789 -1.85327148 11.6199646 C-7.74411553 11.5495319 -7.74411553 11.5495319 -9.97827148 9.90542603 C-11.21484375 8.203125 -11.21484375 8.203125 -10.96484375 4.578125 C-9.5738673 -1.68126905 -5.56230267 0.0260554 0 0 Z " fill="#39B3D4" transform="translate(244.21484375,348.796875)"/>
<path d="M0 0 C0.83426514 -0.00630432 1.66853027 -0.01260864 2.52807617 -0.019104 C3.43017822 -0.01505554 4.33228027 -0.01100708 5.26171875 -0.00683594 C6.64870972 -0.00970612 6.64870972 -0.00970612 8.0637207 -0.01263428 C10.02067334 -0.0139966 11.97763499 -0.0102969 13.93457031 -0.00195312 C16.93705465 0.00874572 19.93894062 -0.00184685 22.94140625 -0.01464844 C24.83984508 -0.01332685 26.73828353 -0.01076448 28.63671875 -0.00683594 C29.5388208 -0.0108844 30.44092285 -0.01493286 31.37036133 -0.019104 C32.62175903 -0.00964752 32.62175903 -0.00964752 33.8984375 0 C34.63408936 0.00159119 35.36974121 0.00318237 36.12768555 0.00482178 C37.94921875 0.25878906 37.94921875 0.25878906 39.94921875 2.25878906 C40.19921875 5.25878906 40.19921875 5.25878906 39.94921875 8.25878906 C37.57875344 10.62925438 37.11517703 10.51062044 33.8984375 10.51757812 C32.64703979 10.52703461 32.64703979 10.52703461 31.37036133 10.53668213 C30.46825928 10.53263367 29.56615723 10.52858521 28.63671875 10.52441406 C27.24972778 10.52728424 27.24972778 10.52728424 25.8347168 10.5302124 C23.87776416 10.53157472 21.92080251 10.52787502 19.96386719 10.51953125 C16.96138285 10.50883241 13.95949688 10.51942497 10.95703125 10.53222656 C9.05859242 10.53090498 7.16015397 10.5283426 5.26171875 10.52441406 C4.3596167 10.52846252 3.45751465 10.53251099 2.52807617 10.53668213 C1.27667847 10.52722565 1.27667847 10.52722565 0 10.51757812 C-0.73565186 10.51598694 -1.47130371 10.51439575 -2.22924805 10.51275635 C-4.05078125 10.25878906 -4.05078125 10.25878906 -6.05078125 8.25878906 C-6.30078125 5.25878906 -6.30078125 5.25878906 -6.05078125 2.25878906 C-3.68031594 -0.11167625 -3.21673953 0.00695768 0 0 Z " fill="#39B3D5" transform="translate(239.05078125,385.7412109375)"/>
<path d="M0 0 C0.83426514 -0.00630432 1.66853027 -0.01260864 2.52807617 -0.019104 C3.43017822 -0.01505554 4.33228027 -0.01100708 5.26171875 -0.00683594 C6.64870972 -0.00970612 6.64870972 -0.00970612 8.0637207 -0.01263428 C10.02067334 -0.0139966 11.97763499 -0.0102969 13.93457031 -0.00195312 C16.93705465 0.00874572 19.93894062 -0.00184685 22.94140625 -0.01464844 C24.83984508 -0.01332685 26.73828353 -0.01076448 28.63671875 -0.00683594 C29.5388208 -0.0108844 30.44092285 -0.01493286 31.37036133 -0.019104 C32.62175903 -0.00964752 32.62175903 -0.00964752 33.8984375 0 C34.63408936 0.00159119 35.36974121 0.00318237 36.12768555 0.00482178 C37.94921875 0.25878906 37.94921875 0.25878906 39.94921875 2.25878906 C40.19921875 5.25878906 40.19921875 5.25878906 39.94921875 8.25878906 C37.57875344 10.62925438 37.11517703 10.51062044 33.8984375 10.51757812 C32.64703979 10.52703461 32.64703979 10.52703461 31.37036133 10.53668213 C30.46825928 10.53263367 29.56615723 10.52858521 28.63671875 10.52441406 C27.24972778 10.52728424 27.24972778 10.52728424 25.8347168 10.5302124 C23.87776416 10.53157472 21.92080251 10.52787502 19.96386719 10.51953125 C16.96138285 10.50883241 13.95949688 10.51942497 10.95703125 10.53222656 C9.05859242 10.53090498 7.16015397 10.5283426 5.26171875 10.52441406 C4.3596167 10.52846252 3.45751465 10.53251099 2.52807617 10.53668213 C1.27667847 10.52722565 1.27667847 10.52722565 0 10.51757812 C-0.73565186 10.51598694 -1.47130371 10.51439575 -2.22924805 10.51275635 C-4.05078125 10.25878906 -4.05078125 10.25878906 -6.05078125 8.25878906 C-6.30078125 5.25878906 -6.30078125 5.25878906 -6.05078125 2.25878906 C-3.68031594 -0.11167625 -3.21673953 0.00695768 0 0 Z " fill="#39B3D5" transform="translate(239.05078125,256.7412109375)"/>
<path d="M0 0 C0.83426514 -0.00630432 1.66853027 -0.01260864 2.52807617 -0.019104 C3.43017822 -0.01505554 4.33228027 -0.01100708 5.26171875 -0.00683594 C6.64870972 -0.00970612 6.64870972 -0.00970612 8.0637207 -0.01263428 C10.02067334 -0.0139966 11.97763499 -0.0102969 13.93457031 -0.00195312 C16.93705465 0.00874572 19.93894062 -0.00184685 22.94140625 -0.01464844 C24.83984508 -0.01332685 26.73828353 -0.01076448 28.63671875 -0.00683594 C29.5388208 -0.0108844 30.44092285 -0.01493286 31.37036133 -0.019104 C32.62175903 -0.00964752 32.62175903 -0.00964752 33.8984375 0 C34.63408936 0.00159119 35.36974121 0.00318237 36.12768555 0.00482178 C37.94921875 0.25878906 37.94921875 0.25878906 39.94921875 2.25878906 C39.37229567 8.83571214 39.37229567 8.83571214 37.94921875 10.25878906 C34.87010216 10.37239199 31.81426409 10.42298011 28.734375 10.42675781 C27.80829941 10.43008621 26.88222382 10.43341461 25.92808533 10.43684387 C23.96516417 10.44191714 22.00223435 10.44425208 20.03930664 10.4440918 C17.02801364 10.44627724 14.01708741 10.4644258 11.00585938 10.48339844 C9.10286584 10.48633242 7.19987056 10.48831718 5.296875 10.48925781 C3.93901634 10.50003609 3.93901634 10.50003609 2.5537262 10.5110321 C1.71623337 10.50795547 0.87874054 10.50487885 0.01586914 10.50170898 C-1.09213295 10.50384651 -1.09213295 10.50384651 -2.22251892 10.50602722 C-4.05078125 10.25878906 -4.05078125 10.25878906 -6.05078125 8.25878906 C-6.30078125 5.25878906 -6.30078125 5.25878906 -6.05078125 2.25878906 C-3.68031594 -0.11167625 -3.21673953 0.00695768 0 0 Z " fill="#39B3D5" transform="translate(239.05078125,330.7412109375)"/>
<path d="M0 0 C0.83426514 -0.00630432 1.66853027 -0.01260864 2.52807617 -0.019104 C3.43017822 -0.01505554 4.33228027 -0.01100708 5.26171875 -0.00683594 C6.64870972 -0.00970612 6.64870972 -0.00970612 8.0637207 -0.01263428 C10.02067334 -0.0139966 11.97763499 -0.0102969 13.93457031 -0.00195312 C16.93705465 0.00874572 19.93894062 -0.00184685 22.94140625 -0.01464844 C24.83984508 -0.01332685 26.73828353 -0.01076448 28.63671875 -0.00683594 C29.5388208 -0.0108844 30.44092285 -0.01493286 31.37036133 -0.019104 C32.62175903 -0.00964752 32.62175903 -0.00964752 33.8984375 0 C34.63408936 0.00159119 35.36974121 0.00318237 36.12768555 0.00482178 C37.94921875 0.25878906 37.94921875 0.25878906 39.94921875 2.25878906 C39.37229567 8.83571214 39.37229567 8.83571214 37.94921875 10.25878906 C34.87010216 10.37239199 31.81426409 10.42298011 28.734375 10.42675781 C27.80829941 10.43008621 26.88222382 10.43341461 25.92808533 10.43684387 C23.96516417 10.44191714 22.00223435 10.44425208 20.03930664 10.4440918 C17.02801364 10.44627724 14.01708741 10.4644258 11.00585938 10.48339844 C9.10286584 10.48633242 7.19987056 10.48831718 5.296875 10.48925781 C3.93901634 10.50003609 3.93901634 10.50003609 2.5537262 10.5110321 C1.71623337 10.50795547 0.87874054 10.50487885 0.01586914 10.50170898 C-1.09213295 10.50384651 -1.09213295 10.50384651 -2.22251892 10.50602722 C-4.05078125 10.25878906 -4.05078125 10.25878906 -6.05078125 8.25878906 C-6.30078125 5.25878906 -6.30078125 5.25878906 -6.05078125 2.25878906 C-3.68031594 -0.11167625 -3.21673953 0.00695768 0 0 Z " fill="#39B3D5" transform="translate(239.05078125,293.7412109375)"/>
<path d="M0 0 C0.83426514 -0.00630432 1.66853027 -0.01260864 2.52807617 -0.019104 C3.43017822 -0.01505554 4.33228027 -0.01100708 5.26171875 -0.00683594 C6.64870972 -0.00970612 6.64870972 -0.00970612 8.0637207 -0.01263428 C10.02067334 -0.0139966 11.97763499 -0.0102969 13.93457031 -0.00195312 C16.93705465 0.00874572 19.93894062 -0.00184685 22.94140625 -0.01464844 C24.83984508 -0.01332685 26.73828353 -0.01076448 28.63671875 -0.00683594 C29.5388208 -0.0108844 30.44092285 -0.01493286 31.37036133 -0.019104 C32.62175903 -0.00964752 32.62175903 -0.00964752 33.8984375 0 C34.63408936 0.00159119 35.36974121 0.00318237 36.12768555 0.00482178 C37.94921875 0.25878906 37.94921875 0.25878906 39.94921875 2.25878906 C39.37229567 8.83571214 39.37229567 8.83571214 37.94921875 10.25878906 C34.8701135 10.38480193 31.81467482 10.44748507 28.734375 10.46191406 C27.34526161 10.47046417 27.34526161 10.47046417 25.92808533 10.47918701 C23.96517078 10.48865157 22.00224024 10.49517675 20.03930664 10.49902344 C17.02787752 10.50873694 14.01712835 10.53974971 11.00585938 10.57128906 C9.10286866 10.57781792 7.19987303 10.58306885 5.296875 10.58691406 C4.39163589 10.59926086 3.48639679 10.61160767 2.5537262 10.62432861 C1.71623337 10.62132751 0.87874054 10.61832642 0.01586914 10.61523438 C-0.72279892 10.61888 -1.46146698 10.62252563 -2.22251892 10.62628174 C-4.05078125 10.25878906 -4.05078125 10.25878906 -6.05078125 7.25878906 C-6.30078125 4.69628906 -6.30078125 4.69628906 -6.05078125 2.25878906 C-3.68031594 -0.11167625 -3.21673953 0.00695768 0 0 Z " fill="#39B3D5" transform="translate(239.05078125,367.7412109375)"/>
<path d="M0 0 C2 2 2 2 3.015625 4.234375 C3 7 3 7 0.421875 10.015625 C-0.78666456 11.11100605 -2.01184614 12.18820787 -3.25 13.25 C-3.89316162 13.82355225 -4.53632324 14.39710449 -5.19897461 14.98803711 C-9.76195709 19.02597957 -14.46581883 22.8845393 -19.22265625 26.69140625 C-22.42444228 29.35280645 -25.46218471 32.15477882 -28.5 35 C-42.84489238 48.42244619 -42.84489238 48.42244619 -48 51 C-48.82848407 44.25377256 -48.82848407 44.25377256 -46.828125 41.2265625 C-44.97511776 39.34708373 -43.04493981 37.6695575 -41 36 C-40.20078125 35.34644531 -39.4015625 34.69289063 -38.578125 34.01953125 C-36.75254227 32.53692042 -34.92283907 31.05937407 -33.08984375 29.5859375 C-29.58609658 26.7071708 -26.29881833 23.60905534 -23 20.5 C-17.96670865 15.75687927 -12.83483865 11.28572787 -7.40234375 7 C-4.7711684 4.80949304 -2.38763691 2.45147747 0 0 Z " fill="#C8D0DA" transform="translate(357,358)"/>
<path d="M0 0 C5.47495842 3.93498647 10.45608768 8.14212742 15.3125 12.8125 C20.44764707 17.68267297 25.68517998 22.28198555 31.22265625 26.6953125 C35.21530449 30.00848052 38.98969883 33.54390927 42.76220703 37.10400391 C45.64496053 39.87456118 45.64496053 39.87456118 49 42 C49 44.97 49 47.94 49 51 C43.51525698 47.09739439 38.54992295 42.82223964 33.63354492 38.23876953 C30.37200462 35.21408949 27.03523912 32.34676606 23.5625 29.5625 C18.7061681 25.65632 14.12825808 21.51457328 9.59008789 17.24829102 C9.07953857 16.76932373 8.56898926 16.29035645 8.04296875 15.796875 C7.54531006 15.32934814 7.04765137 14.86182129 6.53491211 14.38012695 C4.95439787 12.95899653 3.31081695 11.65366894 1.640625 10.33984375 C-1 8 -1 8 -1.4375 4.8125 C-1 2 -1 2 0 0 Z " fill="#C8D1DA" transform="translate(154,358)"/>
<path d="M0 0 C29.7 0 59.4 0 90 0 C90 0.33 90 0.66 90 1 C64.59 1 39.18 1 13 1 C13 5.62 13 10.24 13 15 C8.71 15 4.42 15 0 15 C0 10.05 0 5.1 0 0 Z " fill="#2E9BBF" transform="translate(211,404)"/>
<path d="M0 0 C8.58 0 17.16 0 26 0 C26 0.33 26 0.66 26 1 C22.37 1 18.74 1 15 1 C15 9.25 15 17.5 15 26 C12.76616678 23.02155571 10.91368661 20.25685988 9.08203125 17.05078125 C8.55029297 16.12072266 8.01855469 15.19066406 7.47070312 14.23242188 C6.64989258 12.78706055 6.64989258 12.78706055 5.8125 11.3125 C5.25369141 10.33732422 4.69488281 9.36214844 4.11914062 8.35742188 C0 1.13006525 0 1.13006525 0 0 Z " fill="#CF889D" transform="translate(189,112)"/>
<path d="M0 0 C6.13038426 1.67474241 11.42004359 4.80933801 16.9375 7.875 C17.90107422 8.40480469 18.86464844 8.93460938 19.85742188 9.48046875 C24.93103075 12.27563536 29.98010473 15.1095457 35 18 C35 18.33 35 18.66 35 19 C28.08553841 20.22443591 20.70557556 21.51925009 14.59326172 17.36376953 C9.16928705 12.49557216 3.29022749 6.58045498 0 0 Z " fill="#EBB4C5" transform="translate(277,20)"/>
<path d="M0 0 C0.80244141 0.00966797 1.60488281 0.01933594 2.43164062 0.02929688 C3.68170898 0.06700195 3.68170898 0.06700195 4.95703125 0.10546875 C6.22450195 0.12577148 6.22450195 0.12577148 7.51757812 0.14648438 C9.60183509 0.18181076 11.68576402 0.23561736 13.76953125 0.29296875 C10.20138157 3.31452586 6.62401673 5.5879318 2.48046875 7.74609375 C1.8953653 8.05117859 1.31026184 8.35626343 0.70742798 8.67059326 C-0.51979809 9.30852879 -1.74847087 9.9436883 -2.97851562 10.57617188 C-4.86140627 11.5460271 -6.73746564 12.52826242 -8.61328125 13.51171875 C-9.81080886 14.13226179 -11.00871271 14.75207942 -12.20703125 15.37109375 C-13.29064941 15.9321582 -14.37426758 16.49322266 -15.49072266 17.07128906 C-18.23046875 18.29296875 -18.23046875 18.29296875 -21.23046875 18.29296875 C-20.80636719 17.88046875 -20.38226563 17.46796875 -19.9453125 17.04296875 C-16.046427 13.20406611 -12.36671471 9.24652712 -8.80859375 5.08984375 C-8.2878125 4.496875 -7.76703125 3.90390625 -7.23046875 3.29296875 C-6.79017334 2.76695068 -6.34987793 2.24093262 -5.89624023 1.69897461 C-3.78596311 -0.08221928 -2.72905442 -0.05806499 0 0 Z " fill="#EBB4C5" transform="translate(298.23046875,177.70703125)"/>
<path d="M0 0 C0.33 0 0.66 0 1 0 C1 8.25 1 16.5 1 25 C-3.62 25 -8.24 25 -13 25 C-11.61252327 20.8375698 -10.5523572 17.90634546 -8.43359375 14.2578125 C-7.94826172 13.41992188 -7.46292969 12.58203125 -6.96289062 11.71875 C-6.45951172 10.8628125 -5.95613281 10.006875 -5.4375 9.125 C-4.93025391 8.24585937 -4.42300781 7.36671875 -3.90039062 6.4609375 C-1.11736284 1.68791515 -1.11736284 1.68791515 0 0 Z " fill="#D58A9D" transform="translate(203,79)"/>
<path d="M0 0 C0.66 0.33 1.32 0.66 2 1 C1.03900391 1.94359375 1.03900391 1.94359375 0.05859375 2.90625 C-0.80636719 3.7621875 -1.67132813 4.618125 -2.5625 5.5 C-3.49191406 6.40492187 -4.42132813 7.30984375 -5.37890625 8.2421875 C-7.64621583 10.62776212 -9.22766726 12.88549399 -11 15.625 C-12.84790972 17.87502211 -14.16101695 18.86319411 -17.05419922 19.33496094 C-22.39233265 19.68769621 -27.67238477 19.40591354 -33 19 C-29.55722876 16.09282346 -26.15942863 13.88109796 -22.1484375 11.8359375 C-21.05015625 11.27132813 -19.951875 10.70671875 -18.8203125 10.125 C-17.68335938 9.5475 -16.54640625 8.97 -15.375 8.375 C-13.11122509 7.21761958 -10.84817006 6.05882973 -8.5859375 4.8984375 C-7.5861084 4.38974121 -6.5862793 3.88104492 -5.55615234 3.35693359 C-2.87054991 1.98578793 -2.87054991 1.98578793 0 0 Z " fill="#D3899D" transform="translate(233,20)"/>
<path d="M0 0 C15.78914075 -1.21454929 15.78914075 -1.21454929 20.73046875 1.5 C22.73772729 3.55133009 24.35870555 5.6478773 26 8 C27.27930529 9.448512 28.5706762 10.88647459 29.875 12.3125 C31.77976162 14.49633135 33.38457704 16.57686555 35 19 C28.93083138 16.67625667 23.26168177 13.61448974 17.5 10.625 C16.37207031 10.0475 15.24414062 9.47 14.08203125 8.875 C12.99277344 8.31039062 11.90351563 7.74578125 10.78125 7.1640625 C9.79189453 6.65311035 8.80253906 6.1421582 7.78320312 5.61572266 C4.94612586 3.96872464 2.5054067 2.11129135 0 0 Z " fill="#D3899D" transform="translate(200,178)"/>
<path d="M0 0 C3.01219546 3.01219546 4.63360326 4.73799197 6.578125 8.2578125 C7.01640625 9.04800781 7.4546875 9.83820313 7.90625 10.65234375 C8.3496875 11.46832031 8.793125 12.28429687 9.25 13.125 C9.70890625 13.94871094 10.1678125 14.77242187 10.640625 15.62109375 C14 21.72995722 14 21.72995722 14 24 C9.38 24 4.76 24 0 24 C0 16.08 0 8.16 0 0 Z " fill="#EEB6C6" transform="translate(308,80)"/>
<path d="M0 0 C4.62 0 9.24 0 14 0 C11.99394771 5.01513074 9.61576375 9.54162525 7 14.25 C6.54882812 15.07757813 6.09765625 15.90515625 5.6328125 16.7578125 C5.19710938 17.54414063 4.76140625 18.33046875 4.3125 19.140625 C3.91675781 19.85766602 3.52101563 20.57470703 3.11328125 21.31347656 C2 23 2 23 0 24 C0 16.08 0 8.16 0 0 Z " fill="#EEB6C6" transform="translate(308,113)"/>
<path d="M0 0 C4.29 0 8.58 0 13 0 C13 4.62 13 9.24 13 14 C8.71 14 4.42 14 0 14 C0 9.38 0 4.76 0 0 Z " fill="#4DBBE4" transform="translate(288,405)"/>
<path d="M0 0 C1.65 0 3.3 0 5 0 C6.54306134 3.21899866 8.05537167 6.45154097 9.5625 9.6875 C10.00013672 10.59951172 10.43777344 11.51152344 10.88867188 12.45117188 C11.29794922 13.33740234 11.70722656 14.22363281 12.12890625 15.13671875 C12.70233765 16.35427856 12.70233765 16.35427856 13.28735352 17.59643555 C14.12980679 20.43780331 13.7927215 22.1782628 13 25 C11.14746094 24.80249023 11.14746094 24.80249023 9 24 C7.71972656 21.89868164 7.71972656 21.89868164 6.640625 19.16015625 C6.24746094 18.17982422 5.85429687 17.19949219 5.44921875 16.18945312 C4.85560547 14.64161133 4.85560547 14.64161133 4.25 13.0625 C3.83878906 12.03447266 3.42757813 11.00644531 3.00390625 9.94726562 C0 2.34768221 0 2.34768221 0 0 Z " fill="#26A2C2" transform="translate(280,427)"/>
<path d="M0 0 C1.2065625 0.0309375 1.2065625 0.0309375 2.4375 0.0625 C1.48345685 3.08363665 0.48241299 6.0720214 -0.5625 9.0625 C-0.77712891 9.68366699 -0.99175781 10.30483398 -1.21289062 10.94482422 C-1.93176191 12.99301328 -2.68136128 15.02780385 -3.4375 17.0625 C-3.66969238 17.7335376 -3.90188477 18.4045752 -4.14111328 19.09594727 C-4.8671875 21 -4.8671875 21 -6.5625 24.0625 C-9.2578125 25 -9.2578125 25 -11.5625 25.0625 C-11.0090559 19.26671044 -9.35134517 14.51894659 -7.0625 9.1875 C-6.58103516 8.03121094 -6.58103516 8.03121094 -6.08984375 6.8515625 C-3.24013277 0.07902763 -3.24013277 0.07902763 0 0 Z " fill="#26A2C2" transform="translate(229.5625,426.9375)"/>
<path d="M0 0 C7.71484375 -0.09765625 7.71484375 -0.09765625 10 0 C11 1 11 1 11.09765625 3.72265625 C11.08605469 4.82480469 11.07445312 5.92695313 11.0625 7.0625 C11.05347656 8.16722656 11.04445313 9.27195313 11.03515625 10.41015625 C11.02355469 11.26480469 11.01195312 12.11945313 11 13 C7.7 13 4.4 13 1 13 C0.67 8.71 0.34 4.42 0 0 Z " fill="#4DBBE4" transform="translate(282,217)"/>
<path d="M0 0 C2.57161458 0.03255208 5.14322917 0.06510417 7.71484375 0.09765625 C7.38484375 4.38765625 7.05484375 8.67765625 6.71484375 13.09765625 C3.41484375 13.09765625 0.11484375 13.09765625 -3.28515625 13.09765625 C-3.31202178 11.11856227 -3.33149 9.13936654 -3.34765625 7.16015625 C-3.35925781 6.05800781 -3.37085938 4.95585937 -3.3828125 3.8203125 C-3.25076835 0.13892172 -3.25076835 0.13892172 0 0 Z " fill="#24A6C4" transform="translate(222.28515625,216.90234375)"/>
<path d="M0 0 C1.4540625 0.0309375 1.4540625 0.0309375 2.9375 0.0625 C2.9375 3.0325 2.9375 6.0025 2.9375 9.0625 C14.4875 9.3925 26.0375 9.7225 37.9375 10.0625 C37.9375 10.3925 37.9375 10.7225 37.9375 11.0625 C32.29584639 11.13660727 26.65447553 11.19108167 21.01245117 11.22729492 C19.09280462 11.2423898 17.1731926 11.26286773 15.25366211 11.28881836 C12.49584436 11.32517109 9.7384822 11.34221912 6.98046875 11.35546875 C6.12100143 11.37095261 5.26153412 11.38643646 4.37602234 11.40238953 C3.57541885 11.40261612 2.77481537 11.40284271 1.94995117 11.40307617 C0.89405037 11.41306892 0.89405037 11.41306892 -0.18318176 11.42326355 C-2.6833356 10.94332122 -3.5812688 10.11009671 -5.0625 8.0625 C-4.51281712 0.09209831 -4.51281712 0.09209831 0 0 Z " fill="#309BC0" transform="translate(238.0625,311.9375)"/>
<path d="M0 0 C1.4540625 0.0309375 1.4540625 0.0309375 2.9375 0.0625 C2.9375 3.0325 2.9375 6.0025 2.9375 9.0625 C14.4875 9.3925 26.0375 9.7225 37.9375 10.0625 C37.9375 10.3925 37.9375 10.7225 37.9375 11.0625 C32.29584639 11.13660727 26.65447553 11.19108167 21.01245117 11.22729492 C19.09280462 11.2423898 17.1731926 11.26286773 15.25366211 11.28881836 C12.49584436 11.32517109 9.7384822 11.34221912 6.98046875 11.35546875 C6.12100143 11.37095261 5.26153412 11.38643646 4.37602234 11.40238953 C3.57541885 11.40261612 2.77481537 11.40284271 1.94995117 11.40307617 C0.89405037 11.41306892 0.89405037 11.41306892 -0.18318176 11.42326355 C-2.6833356 10.94332122 -3.5812688 10.11009671 -5.0625 8.0625 C-4.51281712 0.09209831 -4.51281712 0.09209831 0 0 Z " fill="#3198BD" transform="translate(238.0625,348.9375)"/>
<path d="M0 0 C1.32751785 0.00212242 1.32751785 0.00212242 2.68185425 0.00428772 C5.51449941 0.00989485 8.34706614 0.02244854 11.1796875 0.03515625 C13.09765511 0.04017033 15.01562396 0.0447334 16.93359375 0.04882812 C21.64065532 0.05986659 26.3476581 0.077136 31.0546875 0.09765625 C31.0546875 0.42765625 31.0546875 0.75765625 31.0546875 1.09765625 C13.7296875 1.59265625 13.7296875 1.59265625 -3.9453125 2.09765625 C-4.90436106 5.9338505 -4.86423366 7.42197161 -3.9453125 11.09765625 C-6.8203125 11.28515625 -6.8203125 11.28515625 -9.9453125 11.09765625 C-11.9453125 8.09765625 -11.9453125 8.09765625 -11.6953125 4.47265625 C-11.4478125 3.35890625 -11.2003125 2.24515625 -10.9453125 1.09765625 C-7.56138242 -0.59430879 -3.72053459 -0.02220924 0 0 Z " fill="#309BC0" transform="translate(244.9453125,237.90234375)"/>
<path d="M0 0 C1.32751785 0.00212242 1.32751785 0.00212242 2.68185425 0.00428772 C5.51449941 0.00989485 8.34706614 0.02244854 11.1796875 0.03515625 C13.09765511 0.04017033 15.01562396 0.0447334 16.93359375 0.04882812 C21.64065532 0.05986659 26.3476581 0.077136 31.0546875 0.09765625 C31.0546875 0.42765625 31.0546875 0.75765625 31.0546875 1.09765625 C19.1746875 1.09765625 7.2946875 1.09765625 -4.9453125 1.09765625 C-4.6153125 4.39765625 -4.2853125 7.69765625 -3.9453125 11.09765625 C-6.8203125 11.28515625 -6.8203125 11.28515625 -9.9453125 11.09765625 C-11.9453125 8.09765625 -11.9453125 8.09765625 -11.6953125 4.47265625 C-11.4478125 3.35890625 -11.2003125 2.24515625 -10.9453125 1.09765625 C-7.56138242 -0.59430879 -3.72053459 -0.02220924 0 0 Z " fill="#309EC1" transform="translate(244.9453125,274.90234375)"/>
<path d="M0 0 C2.875 -0.125 2.875 -0.125 6 0 C8 2 8 2 8.25 5 C8 8 8 8 6 10 C2.875 10.125 2.875 10.125 0 10 C0 6.7 0 3.4 0 0 Z " fill="#4CB8E2" transform="translate(271,386)"/>
<path d="M0 0 C0.94875 0.04125 1.8975 0.0825 2.875 0.125 C2.875 3.425 2.875 6.725 2.875 10.125 C0 10.25 0 10.25 -3.125 10.125 C-5.125 8.125 -5.125 8.125 -5.375 5.125 C-5.02345647 0.90647769 -4.22997422 0.16919897 0 0 Z " fill="#25A6C4" transform="translate(238.125,385.875)"/>
<path d="M0 0 C2.875 -0.1875 2.875 -0.1875 6 0 C8.14915785 3.22373677 8.38286803 4.26703674 8 8 C6 10 6 10 2.875 10.125 C1.451875 10.063125 1.451875 10.063125 0 10 C0 6.7 0 3.4 0 0 Z " fill="#4CB8E1" transform="translate(271,349)"/>
<path d="M0 0 C0.94875 0.04125 1.8975 0.0825 2.875 0.125 C2.875 3.425 2.875 6.725 2.875 10.125 C0 10.25 0 10.25 -3.125 10.125 C-5.125 8.125 -5.125 8.125 -5.375 5.125 C-5.02345647 0.90647769 -4.22997422 0.16919897 0 0 Z " fill="#25A6C4" transform="translate(238.125,330.875)"/>
<path d="M0 0 C0.94875 0.04125 1.8975 0.0825 2.875 0.125 C2.875 3.425 2.875 6.725 2.875 10.125 C0 10.25 0 10.25 -3.125 10.125 C-5.125 8.125 -5.125 8.125 -5.375 5.125 C-5.02345647 0.90647769 -4.22997422 0.16919897 0 0 Z " fill="#25A5C4" transform="translate(238.125,293.875)"/>
<path d="M0 0 C2.31 0 4.62 0 7 0 C8.33359073 6.42548263 8.33359073 6.42548263 6.875 8.9375 C5 10 5 10 0 10 C0 6.7 0 3.4 0 0 Z " fill="#4CB7E0" transform="translate(271,276)"/>
<path d="M0 0 C2.875 -0.125 2.875 -0.125 6 0 C8 2 8 2 8.25 5 C8 8 8 8 6 10 C2.875 10.125 2.875 10.125 0 10 C0 6.7 0 3.4 0 0 Z " fill="#4CB8E1" transform="translate(271,257)"/>
<path d="M0 0 C0.94875 0.04125 1.8975 0.0825 2.875 0.125 C2.875 3.425 2.875 6.725 2.875 10.125 C0 10.25 0 10.25 -3.125 10.125 C-5.125 8.125 -5.125 8.125 -5.375 5.125 C-5.02345647 0.90647769 -4.22997422 0.16919897 0 0 Z " fill="#25A5C4" transform="translate(238.125,256.875)"/>
<path d="M0 0 C2.875 -0.125 2.875 -0.125 6 0 C6.66 0.66 7.32 1.32 8 2 C7.42307692 8.57692308 7.42307692 8.57692308 6 10 C4.00041636 10.04080783 1.99954746 10.04254356 0 10 C0 6.7 0 3.4 0 0 Z " fill="#4CB8E1" transform="translate(271,239)"/>
<path d="M0 0 C2.875 -0.125 2.875 -0.125 6 0 C6.66 0.66 7.32 1.32 8 2 C7.42307692 8.57692308 7.42307692 8.57692308 6 10 C4.00041636 10.04080783 1.99954746 10.04254356 0 10 C0 6.7 0 3.4 0 0 Z " fill="#4CB9E2" transform="translate(271,368)"/>
<path d="M0 0 C0.94875 0.04125 1.8975 0.0825 2.875 0.125 C2.875 3.425 2.875 6.725 2.875 10.125 C0 10.3125 0 10.3125 -3.125 10.125 C-5.27415785 6.90126323 -5.50786803 5.85796326 -5.125 2.125 C-3.125 0.125 -3.125 0.125 0 0 Z " fill="#25A6C5" transform="translate(238.125,367.875)"/>
<path d="M0 0 C2.875 -0.125 2.875 -0.125 6 0 C6.66 0.66 7.32 1.32 8 2 C7.42307692 8.57692308 7.42307692 8.57692308 6 10 C4.00041636 10.04080783 1.99954746 10.04254356 0 10 C0 6.7 0 3.4 0 0 Z " fill="#4DB9E2" transform="translate(271,331)"/>
<path d="M0 0 C2.875 -0.125 2.875 -0.125 6 0 C6.66 0.66 7.32 1.32 8 2 C7.42307692 8.57692308 7.42307692 8.57692308 6 10 C4.00041636 10.04080783 1.99954746 10.04254356 0 10 C0 6.7 0 3.4 0 0 Z " fill="#4DB9E2" transform="translate(271,294)"/>
<path d="M0 0 C2.64 0 5.28 0 8 0 C8 4.62 8 9.24 8 14 C0 4 0 4 0 0 Z " fill="#E799AD" transform="translate(300,47)"/>
<path d="M0 0 C8 8 8 8 8 13 C5.36 13 2.72 13 0 13 C0 8.71 0 4.42 0 0 Z " fill="#E496AA" transform="translate(204,157)"/>
<path d="M0 0 C2.64 0 5.28 0 8 0 C7.04901734 1.98270912 6.08899297 3.96108379 5.125 5.9375 C4.59132812 7.03964844 4.05765625 8.14179687 3.5078125 9.27734375 C2 12 2 12 0 13 C0 8.71 0 4.42 0 0 Z " fill="#E897AC" transform="translate(204,47)"/>
<path d="M0 0 C1.98 0 3.96 0 6 0 C6.625 3.375 6.625 3.375 7 7 C5 9 5 9 1.875 9.125 C0.451875 9.063125 0.451875 9.063125 -1 9 C-0.67 6.03 -0.34 3.06 0 0 Z " fill="#4CB9E2" transform="translate(272,313)"/>
<path d="M0 0 C0.33 0 0.66 0 1 0 C1 3.96 1 7.92 1 12 C-1.31 12 -3.62 12 -6 12 C-4.43358249 7.69235185 -2.31663844 3.93828536 0 0 Z " fill="#E596AB" transform="translate(306,158)"/>
</svg>
